<svg xmlns="http://www.w3.org/2000/svg" viewBox="0 0 512 512" width="512" height="512"><defs>
 <linearGradient id="yg" x1="0" y1="0" x2="0" y2="1"><stop offset="0" stop-color="#FCD535"/><stop offset="1" stop-color="#F0B90B"/></linearGradient>
 <linearGradient id="ygD" x1="0" y1="0" x2="1" y2="1"><stop offset="0" stop-color="#FCD535"/><stop offset="1" stop-color="#E5A800"/></linearGradient>
 <radialGradient id="ygR" cx="0.33" cy="0.28" r="0.9"><stop offset="0" stop-color="#FFDD5C"/><stop offset="0.55" stop-color="#F0B90B"/><stop offset="1" stop-color="#E5A800"/></radialGradient>
</defs><path d="M 512.00 256.00 L 512.00 288.58 L 511.98 300.04 L 511.96 308.53 L 511.93 315.52 L 511.89 321.58 L 511.85 326.99 L 511.79 331.91 L 511.73 336.44 L 511.66 340.65 L 511.58 344.61 L 511.49 348.35 L 511.39 351.90 L 511.28 355.28 L 511.17 358.52 L 511.05 361.62 L 510.91 364.61 L 510.77 367.49 L 510.62 370.27 L 510.47 372.97 L 510.30 375.58 L 510.13 378.12 L 509.94 380.58 L 509.75 382.98 L 509.55 385.32 L 509.34 387.60 L 509.13 389.83 L 508.90 392.00 L 508.67 394.13 L 508.42 396.20 L 508.17 398.24 L 507.91 400.23 L 507.64 402.19 L 507.36 404.10 L 507.08 405.98 L 506.78 407.83 L 506.48 409.64 L 506.16 411.41 L 505.84 413.16 L 505.51 414.88 L 505.17 416.57 L 504.82 418.23 L 504.46 419.86 L 504.10 421.47 L 503.72 423.05 L 503.34 424.60 L 502.94 426.14 L 502.54 427.64 L 502.13 429.13 L 501.71 430.60 L 501.28 432.04 L 500.84 433.46 L 500.39 434.86 L 499.94 436.24 L 499.47 437.61 L 499.00 438.95 L 498.51 440.27 L 498.02 441.58 L 497.51 442.87 L 497.00 444.14 L 496.48 445.39 L 495.95 446.63 L 495.41 447.85 L 494.86 449.05 L 494.30 450.24 L 493.73 451.41 L 493.15 452.56 L 492.56 453.71 L 491.96 454.83 L 491.35 455.94 L 490.73 457.04 L 490.10 458.12 L 489.46 459.19 L 488.82 460.24 L 488.16 461.28 L 487.49 462.31 L 486.81 463.32 L 486.12 464.32 L 485.42 465.31 L 484.71 466.29 L 483.99 467.25 L 483.26 468.20 L 482.52 469.13 L 481.76 470.06 L 481.00 470.97 L 480.23 471.87 L 479.44 472.76 L 478.65 473.63 L 477.84 474.50 L 477.02 475.35 L 476.19 476.19 L 475.35 477.02 L 474.50 477.84 L 473.63 478.65 L 472.76 479.44 L 471.87 480.23 L 470.97 481.00 L 470.06 481.76 L 469.13 482.52 L 468.20 483.26 L 467.25 483.99 L 466.29 484.71 L 465.31 485.42 L 464.32 486.12 L 463.32 486.81 L 462.31 487.49 L 461.28 488.16 L 460.24 488.82 L 459.19 489.46 L 458.12 490.10 L 457.04 490.73 L 455.94 491.35 L 454.83 491.96 L 453.71 492.56 L 452.56 493.15 L 451.41 493.73 L 450.24 494.30 L 449.05 494.86 L 447.85 495.41 L 446.63 495.95 L 445.39 496.48 L 444.14 497.00 L 442.87 497.51 L 441.58 498.02 L 440.27 498.51 L 438.95 499.00 L 437.61 499.47 L 436.24 499.94 L 434.86 500.39 L 433.46 500.84 L 432.04 501.28 L 430.60 501.71 L 429.13 502.13 L 427.64 502.54 L 426.14 502.94 L 424.60 503.34 L 423.05 503.72 L 421.47 504.10 L 419.86 504.46 L 418.23 504.82 L 416.57 505.17 L 414.88 505.51 L 413.16 505.84 L 411.41 506.16 L 409.64 506.48 L 407.83 506.78 L 405.98 507.08 L 404.10 507.36 L 402.19 507.64 L 400.23 507.91 L 398.24 508.17 L 396.20 508.42 L 394.13 508.67 L 392.00 508.90 L 389.83 509.13 L 387.60 509.34 L 385.32 509.55 L 382.98 509.75 L 380.58 509.94 L 378.12 510.13 L 375.58 510.30 L 372.97 510.47 L 370.27 510.62 L 367.49 510.77 L 364.61 510.91 L 361.62 511.05 L 358.52 511.17 L 355.28 511.28 L 351.90 511.39 L 348.35 511.49 L 344.61 511.58 L 340.65 511.66 L 336.44 511.73 L 331.91 511.79 L 326.99 511.85 L 321.58 511.89 L 315.52 511.93 L 308.53 511.96 L 300.04 511.98 L 288.58 512.00 L 256.00 512.00 L 223.42 512.00 L 211.96 511.98 L 203.47 511.96 L 196.48 511.93 L 190.42 511.89 L 185.01 511.85 L 180.09 511.79 L 175.56 511.73 L 171.35 511.66 L 167.39 511.58 L 163.65 511.49 L 160.10 511.39 L 156.72 511.28 L 153.48 511.17 L 150.38 511.05 L 147.39 510.91 L 144.51 510.77 L 141.73 510.62 L 139.03 510.47 L 136.42 510.30 L 133.88 510.13 L 131.42 509.94 L 129.02 509.75 L 126.68 509.55 L 124.40 509.34 L 122.17 509.13 L 120.00 508.90 L 117.87 508.67 L 115.80 508.42 L 113.76 508.17 L 111.77 507.91 L 109.81 507.64 L 107.90 507.36 L 106.02 507.08 L 104.17 506.78 L 102.36 506.48 L 100.59 506.16 L 98.84 505.84 L 97.12 505.51 L 95.43 505.17 L 93.77 504.82 L 92.14 504.46 L 90.53 504.10 L 88.95 503.72 L 87.40 503.34 L 85.86 502.94 L 84.36 502.54 L 82.87 502.13 L 81.40 501.71 L 79.96 501.28 L 78.54 500.84 L 77.14 500.39 L 75.76 499.94 L 74.39 499.47 L 73.05 499.00 L 71.73 498.51 L 70.42 498.02 L 69.13 497.51 L 67.86 497.00 L 66.61 496.48 L 65.37 495.95 L 64.15 495.41 L 62.95 494.86 L 61.76 494.30 L 60.59 493.73 L 59.44 493.15 L 58.29 492.56 L 57.17 491.96 L 56.06 491.35 L 54.96 490.73 L 53.88 490.10 L 52.81 489.46 L 51.76 488.82 L 50.72 488.16 L 49.69 487.49 L 48.68 486.81 L 47.68 486.12 L 46.69 485.42 L 45.71 484.71 L 44.75 483.99 L 43.80 483.26 L 42.87 482.52 L 41.94 481.76 L 41.03 481.00 L 40.13 480.23 L 39.24 479.44 L 38.37 478.65 L 37.50 477.84 L 36.65 477.02 L 35.81 476.19 L 34.98 475.35 L 34.16 474.50 L 33.35 473.63 L 32.56 472.76 L 31.77 471.87 L 31.00 470.97 L 30.24 470.06 L 29.48 469.13 L 28.74 468.20 L 28.01 467.25 L 27.29 466.29 L 26.58 465.31 L 25.88 464.32 L 25.19 463.32 L 24.51 462.31 L 23.84 461.28 L 23.18 460.24 L 22.54 459.19 L 21.90 458.12 L 21.27 457.04 L 20.65 455.94 L 20.04 454.83 L 19.44 453.71 L 18.85 452.56 L 18.27 451.41 L 17.70 450.24 L 17.14 449.05 L 16.59 447.85 L 16.05 446.63 L 15.52 445.39 L 15.00 444.14 L 14.49 442.87 L 13.98 441.58 L 13.49 440.27 L 13.00 438.95 L 12.53 437.61 L 12.06 436.24 L 11.61 434.86 L 11.16 433.46 L 10.72 432.04 L 10.29 430.60 L 9.87 429.13 L 9.46 427.64 L 9.06 426.14 L 8.66 424.60 L 8.28 423.05 L 7.90 421.47 L 7.54 419.86 L 7.18 418.23 L 6.83 416.57 L 6.49 414.88 L 6.16 413.16 L 5.84 411.41 L 5.52 409.64 L 5.22 407.83 L 4.92 405.98 L 4.64 404.10 L 4.36 402.19 L 4.09 400.23 L 3.83 398.24 L 3.58 396.20 L 3.33 394.13 L 3.10 392.00 L 2.87 389.83 L 2.66 387.60 L 2.45 385.32 L 2.25 382.98 L 2.06 380.58 L 1.87 378.12 L 1.70 375.58 L 1.53 372.97 L 1.38 370.27 L 1.23 367.49 L 1.09 364.61 L 0.95 361.62 L 0.83 358.52 L 0.72 355.28 L 0.61 351.90 L 0.51 348.35 L 0.42 344.61 L 0.34 340.65 L 0.27 336.44 L 0.21 331.91 L 0.15 326.99 L 0.11 321.58 L 0.07 315.52 L 0.04 308.53 L 0.02 300.04 L 0.00 288.58 L 0.00 256.00 L 0.00 223.42 L 0.02 211.96 L 0.04 203.47 L 0.07 196.48 L 0.11 190.42 L 0.15 185.01 L 0.21 180.09 L 0.27 175.56 L 0.34 171.35 L 0.42 167.39 L 0.51 163.65 L 0.61 160.10 L 0.72 156.72 L 0.83 153.48 L 0.95 150.38 L 1.09 147.39 L 1.23 144.51 L 1.38 141.73 L 1.53 139.03 L 1.70 136.42 L 1.87 133.88 L 2.06 131.42 L 2.25 129.02 L 2.45 126.68 L 2.66 124.40 L 2.87 122.17 L 3.10 120.00 L 3.33 117.87 L 3.58 115.80 L 3.83 113.76 L 4.09 111.77 L 4.36 109.81 L 4.64 107.90 L 4.92 106.02 L 5.22 104.17 L 5.52 102.36 L 5.84 100.59 L 6.16 98.84 L 6.49 97.12 L 6.83 95.43 L 7.18 93.77 L 7.54 92.14 L 7.90 90.53 L 8.28 88.95 L 8.66 87.40 L 9.06 85.86 L 9.46 84.36 L 9.87 82.87 L 10.29 81.40 L 10.72 79.96 L 11.16 78.54 L 11.61 77.14 L 12.06 75.76 L 12.53 74.39 L 13.00 73.05 L 13.49 71.73 L 13.98 70.42 L 14.49 69.13 L 15.00 67.86 L 15.52 66.61 L 16.05 65.37 L 16.59 64.15 L 17.14 62.95 L 17.70 61.76 L 18.27 60.59 L 18.85 59.44 L 19.44 58.29 L 20.04 57.17 L 20.65 56.06 L 21.27 54.96 L 21.90 53.88 L 22.54 52.81 L 23.18 51.76 L 23.84 50.72 L 24.51 49.69 L 25.19 48.68 L 25.88 47.68 L 26.58 46.69 L 27.29 45.71 L 28.01 44.75 L 28.74 43.80 L 29.48 42.87 L 30.24 41.94 L 31.00 41.03 L 31.77 40.13 L 32.56 39.24 L 33.35 38.37 L 34.16 37.50 L 34.98 36.65 L 35.81 35.81 L 36.65 34.98 L 37.50 34.16 L 38.37 33.35 L 39.24 32.56 L 40.13 31.77 L 41.03 31.00 L 41.94 30.24 L 42.87 29.48 L 43.80 28.74 L 44.75 28.01 L 45.71 27.29 L 46.69 26.58 L 47.68 25.88 L 48.68 25.19 L 49.69 24.51 L 50.72 23.84 L 51.76 23.18 L 52.81 22.54 L 53.88 21.90 L 54.96 21.27 L 56.06 20.65 L 57.17 20.04 L 58.29 19.44 L 59.44 18.85 L 60.59 18.27 L 61.76 17.70 L 62.95 17.14 L 64.15 16.59 L 65.37 16.05 L 66.61 15.52 L 67.86 15.00 L 69.13 14.49 L 70.42 13.98 L 71.73 13.49 L 73.05 13.00 L 74.39 12.53 L 75.76 12.06 L 77.14 11.61 L 78.54 11.16 L 79.96 10.72 L 81.40 10.29 L 82.87 9.87 L 84.36 9.46 L 85.86 9.06 L 87.40 8.66 L 88.95 8.28 L 90.53 7.90 L 92.14 7.54 L 93.77 7.18 L 95.43 6.83 L 97.12 6.49 L 98.84 6.16 L 100.59 5.84 L 102.36 5.52 L 104.17 5.22 L 106.02 4.92 L 107.90 4.64 L 109.81 4.36 L 111.77 4.09 L 113.76 3.83 L 115.80 3.58 L 117.87 3.33 L 120.00 3.10 L 122.17 2.87 L 124.40 2.66 L 126.68 2.45 L 129.02 2.25 L 131.42 2.06 L 133.88 1.87 L 136.42 1.70 L 139.03 1.53 L 141.73 1.38 L 144.51 1.23 L 147.39 1.09 L 150.38 0.95 L 153.48 0.83 L 156.72 0.72 L 160.10 0.61 L 163.65 0.51 L 167.39 0.42 L 171.35 0.34 L 175.56 0.27 L 180.09 0.21 L 185.01 0.15 L 190.42 0.11 L 196.48 0.07 L 203.47 0.04 L 211.96 0.02 L 223.42 0.00 L 256.00 0.00 L 288.58 0.00 L 300.04 0.02 L 308.53 0.04 L 315.52 0.07 L 321.58 0.11 L 326.99 0.15 L 331.91 0.21 L 336.44 0.27 L 340.65 0.34 L 344.61 0.42 L 348.35 0.51 L 351.90 0.61 L 355.28 0.72 L 358.52 0.83 L 361.62 0.95 L 364.61 1.09 L 367.49 1.23 L 370.27 1.38 L 372.97 1.53 L 375.58 1.70 L 378.12 1.87 L 380.58 2.06 L 382.98 2.25 L 385.32 2.45 L 387.60 2.66 L 389.83 2.87 L 392.00 3.10 L 394.13 3.33 L 396.20 3.58 L 398.24 3.83 L 400.23 4.09 L 402.19 4.36 L 404.10 4.64 L 405.98 4.92 L 407.83 5.22 L 409.64 5.52 L 411.41 5.84 L 413.16 6.16 L 414.88 6.49 L 416.57 6.83 L 418.23 7.18 L 419.86 7.54 L 421.47 7.90 L 423.05 8.28 L 424.60 8.66 L 426.14 9.06 L 427.64 9.46 L 429.13 9.87 L 430.60 10.29 L 432.04 10.72 L 433.46 11.16 L 434.86 11.61 L 436.24 12.06 L 437.61 12.53 L 438.95 13.00 L 440.27 13.49 L 441.58 13.98 L 442.87 14.49 L 444.14 15.00 L 445.39 15.52 L 446.63 16.05 L 447.85 16.59 L 449.05 17.14 L 450.24 17.70 L 451.41 18.27 L 452.56 18.85 L 453.71 19.44 L 454.83 20.04 L 455.94 20.65 L 457.04 21.27 L 458.12 21.90 L 459.19 22.54 L 460.24 23.18 L 461.28 23.84 L 462.31 24.51 L 463.32 25.19 L 464.32 25.88 L 465.31 26.58 L 466.29 27.29 L 467.25 28.01 L 468.20 28.74 L 469.13 29.48 L 470.06 30.24 L 470.97 31.00 L 471.87 31.77 L 472.76 32.56 L 473.63 33.35 L 474.50 34.16 L 475.35 34.98 L 476.19 35.81 L 477.02 36.65 L 477.84 37.50 L 478.65 38.37 L 479.44 39.24 L 480.23 40.13 L 481.00 41.03 L 481.76 41.94 L 482.52 42.87 L 483.26 43.80 L 483.99 44.75 L 484.71 45.71 L 485.42 46.69 L 486.12 47.68 L 486.81 48.68 L 487.49 49.69 L 488.16 50.72 L 488.82 51.76 L 489.46 52.81 L 490.10 53.88 L 490.73 54.96 L 491.35 56.06 L 491.96 57.17 L 492.56 58.29 L 493.15 59.44 L 493.73 60.59 L 494.30 61.76 L 494.86 62.95 L 495.41 64.15 L 495.95 65.37 L 496.48 66.61 L 497.00 67.86 L 497.51 69.13 L 498.02 70.42 L 498.51 71.73 L 499.00 73.05 L 499.47 74.39 L 499.94 75.76 L 500.39 77.14 L 500.84 78.54 L 501.28 79.96 L 501.71 81.40 L 502.13 82.87 L 502.54 84.36 L 502.94 85.86 L 503.34 87.40 L 503.72 88.95 L 504.10 90.53 L 504.46 92.14 L 504.82 93.77 L 505.17 95.43 L 505.51 97.12 L 505.84 98.84 L 506.16 100.59 L 506.48 102.36 L 506.78 104.17 L 507.08 106.02 L 507.36 107.90 L 507.64 109.81 L 507.91 111.77 L 508.17 113.76 L 508.42 115.80 L 508.67 117.87 L 508.90 120.00 L 509.13 122.17 L 509.34 124.40 L 509.55 126.68 L 509.75 129.02 L 509.94 131.42 L 510.13 133.88 L 510.30 136.42 L 510.47 139.03 L 510.62 141.73 L 510.77 144.51 L 510.91 147.39 L 511.05 150.38 L 511.17 153.48 L 511.28 156.72 L 511.39 160.10 L 511.49 163.65 L 511.58 167.39 L 511.66 171.35 L 511.73 175.56 L 511.79 180.09 L 511.85 185.01 L 511.89 190.42 L 511.93 196.48 L 511.96 203.47 L 511.98 211.96 L 512.00 223.42 L 512.00 256.00 Z" fill="url(#yg)"/><path d="M516 -200V40H788V-200ZM516 1398V1638H788V1398ZM654 -30Q499 -30 377.0 27.5Q255 85 178.0 190.5Q101 296 80 440L350 482Q377 364 463.5 294.0Q550 224 670 224Q783 224 857.5 277.0Q932 330 932 408Q932 461 899.5 495.5Q867 530 798 552L442 662Q134 757 134 1038Q134 1170 196.5 1267.0Q259 1364 373.5 1416.5Q488 1469 644 1468Q787 1466 898.0 1416.5Q1009 1367 1083.5 1273.5Q1158 1180 1192 1046L912 996Q898 1060 860.0 1108.5Q822 1157 765.5 1184.5Q709 1212 640 1214Q574 1216 520.5 1195.0Q467 1174 435.5 1136.5Q404 1099 404 1052Q404 1000 448.0 962.5Q492 925 588 898L842 826Q1033 771 1117.5 677.0Q1202 583 1202 428Q1202 292 1133.0 189.0Q1064 86 940.5 28.0Q817 -30 654 -30Z" fill="#FFFFFF" transform="translate(151.38,379.36) scale(0.1632,-0.1632)"/></svg>
